<svg xmlns="http://www.w3.org/2000/svg" width="100" height="100" viewBox="0 0 100 100"><path fill="transparent" d="M0 0h100v100H0z"/><path fill="#1e1210" d="M44.04 19.784c-.122.046-.18.133-.18.27 0 .11-.037.201-.083.201-.045 0-.105.06-.133.134a1 1 0 0 1-.197.279c-.158.158-.197.62-.064.754.091.09.127.344.206 1.465.045.639.087.808.27 1.083.184.277.215.402.204.83-.01.407.022.554.171.774.116.17.184.388.184.588 0 .356.319.915.567.994.18.057.183.149.03.87-.124.59-.5 1.214-1.357 2.261a3.5 3.5 0 0 0-.359.534 1.4 1.4 0 0 1-.297.385c-.098.08-.179.186-.179.236s-.135.232-.3.406c-.296.313-.296.314-.041.139.14-.097.278-.21.303-.252a.17.17 0 0 1 .127-.076c.044 0 .058.036.03.08-.084.137.072.087.377-.12.335-.228.434-.248.434-.084 0 .063-.037.108-.082.1-.046-.01-.085.02-.088.064a.5.5 0 0 1-.068.179c-.093.146.01.122.272-.065.127-.09.267-.142.311-.115s.16-.006.258-.075c.256-.179.35-.152.174.05-.148.168-.148.17-.001.117.13-.048.136-.038.046.071-.093.112-.079.12.128.069.128-.032.477-.161.774-.287s.58-.206.626-.177c.047.03.264-.03.481-.133.32-.15.409-.164.462-.078.048.077.177.095.454.063.322-.037.417-.016.57.125.18.168.186.169.727.03.56-.145.812-.128 1.23.083a.51.51 0 0 0 .463.03c.18-.062.324-.052.596.04.34.115.378.113.713-.05.195-.094.354-.201.354-.238s.243-.191.54-.343c.52-.264.56-.272 1.005-.195.415.071.488.063.682-.081.12-.089.394-.179.61-.2s.452-.064.525-.094c.187-.076.766-.943.81-1.213.067-.408.228-.663.419-.663.251 0 .791-.67.868-1.077.032-.175.066-.534.073-.797.012-.41.04-.49.19-.557a.73.73 0 0 0 .288-.308c.093-.19.094-.264.008-.43-.161-.31-.73-.8-.997-.859a.67.67 0 0 1-.366-.244c-.21-.32-1.353-.98-2.342-1.35-.33-.124-.716-.327-.86-.451-.178-.154-.35-.227-.534-.227-.15 0-.57-.138-.934-.307-.365-.17-.925-.393-1.245-.498s-.64-.253-.71-.33c-.08-.088-.242-.141-.43-.141q-.563 0-.95-.351c-.218-.199-1.097-.436-1.873-.506-.276-.025-.568-.106-.69-.191-.235-.164-.617-.2-1.226-.115-.22.031-.489.023-.598-.018a.6.6 0 0 0-.377-.008m29.546 10.789c-.09.069-.276.092-.532.068-.314-.03-.442-.004-.631.13-.133.095-.36.17-.514.17a2.3 2.3 0 0 0-.626.124c-.201.072-.629.127-1.009.13-.476.005-.677.037-.722.117-.063.113-.6.223-1.686.345-.328.037-.609.107-.625.154-.015.048-.142.09-.28.095-.265.008-.71.125-.572.15.043.008.313.013.598.012.426-.001.32.026-.598.153-.614.085-1.242.146-1.396.135-.184-.013-.027-.059.459-.135.405-.063.737-.14.737-.173 0-.09-1.174-.005-2.033.146a13 13 0 0 1-.877.063c-.395.019-.87.076-1.055.127-.185.05-.432.073-.549.051-.116-.022-.45-.009-.74.03-.29.04-.814.09-1.165.112a10 10 0 0 0-1.06.125c-.232.047-.77.1-1.196.117-.718.03-1.615.093-2.09.148-.11.012-.298.028-.419.035-.136.008-.22.058-.22.132 0 .129-.288.168-.332.045-.03-.084-.273-.115-.764-.097-.26.01-.339.043-.339.148s-.021.114-.095.04c-.128-.128-.875-.12-1.858.02-.867.123-2.086.177-2.167.097-.063-.063-.387.006-.718.154a2.5 2.5 0 0 1-.598.153c-.463.054-1.502.102-1.502.07 0-.015.1-.08.22-.146.216-.117.213-.119-.22-.113-.24.004-.375.023-.299.043s.14.084.14.143c0 .106-.142.122-2.193.242-.395.023-.861.06-1.037.083a15 15 0 0 1-.837.07c-.285.017-.877.068-1.316.114-.438.046-1.156.103-1.595.126a19 19 0 0 0-1.036.078c-.132.02-.616.06-1.077.09l-.837.053.192-.169c.235-.206.175-.292-.127-.182-.124.045-.17.09-.105.099s-.186.061-.558.115c-.629.09-.649.1-.28.117.593.028.151.148-.518.14-.3-.002-.391-.018-.217-.036.297-.031.346-.181.06-.181-.082 0-.164-.027-.182-.06s-.024-.02-.013.029c.024.108-.9.193-2.57.237-1.023.026-1.222.012-1.31-.094-.086-.103-.084-.137.01-.198.175-.112-.05-.23-.443-.233a1.34 1.34 0 0 1-.558-.139c-.185-.106-.458-.14-1.196-.153-1.07-.018-1.427-.072-1.562-.235-.13-.157-.343-.138-.509.045-.078.086-.164.15-.192.144-.205-.051-1.005.137-1.135.266a.76.76 0 0 1-.372.184c-.65.086-.708.25-.536 1.483.009.065-.146.267-.343.446l-.36.328.09.355c.116.462.039.913-.197 1.148-.216.216-.234.368-.072.616.117.18.134.397.102 1.345-.013.385-.058.574-.165.692-.081.09-.127.197-.1.24.025.04-.007.12-.073.173-.182.151-.142.518.087.79.112.133.181.281.152.328-.067.108.08.284.468.567.316.23.627.666.874 1.225.09.204.25.382.44.491.165.095.477.332.695.526.499.447.673.538 1.028.538.156 0 .284.035.284.077 0 .043.077.118.171.169.223.119.683-.012.967-.275.153-.142.339-.204.735-.247.43-.046.582-.102.804-.297.15-.132.274-.287.274-.344 0-.134.51-.398.914-.473.437-.081.693-.231.878-.514.126-.192.262-.267.678-.373 1.031-.26 1.367-.381 1.468-.526.062-.087.277-.18.535-.228.237-.044.528-.152.647-.24.119-.086.263-.158.32-.158s.246-.089.421-.197.403-.198.506-.199.282-.054.399-.117a2 2 0 0 1 .51-.163c.166-.027.37-.124.456-.216.085-.091.345-.23.577-.31.424-.143.598-.135.38.017-.089.063-.07.072.083.037.11-.025.262-.046.339-.047.076 0 .14-.046.14-.101s.08-.152.179-.214c.235-.148 1.016-.33 1.016-.237 0 .04-.06.073-.135.073-.084 0-.107.027-.06.072.097.093.688-.007.657-.111-.013-.043-.095-.072-.183-.063-.434.04.637-.227 1.23-.308.377-.05.728-.127.782-.168.053-.042.412-.107.797-.144 1.057-.103 2.012-.227 2.439-.315.21-.044.576-.08.812-.08s.452-.036.48-.08c.027-.043.168-.08.314-.08.201 0 .276.04.308.166.09.347-.04.7-.373 1.013-.181.17-.397.45-.48.622-.084.172-.182.367-.22.433-.037.065-.105.209-.15.319-.13.318-.142.34-.374.726-.252.42-.868 1.14-.794.928.092-.263-.086-.139-.403.28-.174.23-.5.633-.726.896-.55.641-.52.762.038.16.244-.263.368-.365.276-.226-.093.138-.422.515-.732.837-.395.41-.498.49-.344.266.144-.21-.057-.047-.59.475-.445.436-.792.81-.772.83.021.021.121-.04.222-.135.328-.307.336-.183.011.154a2.9 2.9 0 0 1-.714.512c-.374.174-1.043.756-.869.756.044 0 .131-.045.194-.1s.03-.002-.075.117-.216.201-.247.182c-.032-.02-.206.106-.388.279s-.375.297-.43.276-.35.122-.657.318a10 10 0 0 1-.837.489c-.154.072-.446.217-.649.321-.294.152-.493.191-.971.191-.527 0-.62.022-.749.18-.081.098-.314.263-.518.366-.414.21-.61.534-.476.785.096.18.039.72-.1.942-.18.286-.21.582-.093.933.062.188.1.484.086.656-.028.318.1.664.355.963.159.184.43 1.128.358 1.244-.065.107.326.607.524.67.09.028.16.12.16.213 0 .09.108.323.24.52.133.196.313.496.4.667.157.308.43.46.664.37.06-.023.212.026.339.11.277.183.55.193.857.033.126-.065.267-.12.313-.12.047 0 .154-.062.239-.139.121-.11.298-.14.823-.14h.67l.31-.338c.172-.189.382-.339.473-.339s.184-.031.207-.07c.024-.037.232-.093.463-.124.232-.03.507-.11.612-.18.105-.068.367-.136.581-.152.215-.015.469-.082.564-.15a.87.87 0 0 1 .416-.124c.133-.002.475-.057.76-.123s.816-.168 1.179-.226.683-.129.711-.156c.052-.053-.03-.062-.594-.067-.187-.001-.34-.031-.34-.066 0-.074.88-.163 1.814-.183.48-.01.668-.044.7-.126.034-.088.066-.08.155.04.109.148.116.147.285-.033.095-.101.196-.16.225-.128.028.03.007.072-.048.091s-.1.078-.1.13c0 .051-.075.14-.167.198s-.146.126-.119.153.16-.057.297-.185.236-.194.219-.146c-.038.11-.988.989-1.068.989-.032 0-.014-.054.04-.12.165-.198-.038-.134-.233.074-.109.116-.157.234-.12.293q.065.103-.07.049c-.092-.035-.279.094-.616.425-.267.261-.51.475-.543.475-.032 0-.22.153-.417.34-.198.185-.717.624-1.153.974-.437.349-.83.676-.875.726a8 8 0 0 1-.598.485c-.285.216-.644.51-.797.654-.252.236-1.23.97-1.724 1.295-.108.07-.31.253-.452.405-.495.534-2.361 1.9-2.596 1.9-.082 0-.324.095-.54.21-1.197.649-1.476.763-1.731.712-.334-.068-.43-.068-.832-.001-.304.05-.339.04-.339-.103 0-.087.073-.251.161-.364l.16-.204-.459.042c-.253.024-.77.15-1.149.28-.616.211-.722.227-1.001.143a1 1 0 0 0-.606-.012c-.204.056-.364.054-.522-.005-.278-.105-.492-.035-.548.18-.023.087-.104.158-.181.158s-.238.077-.358.172c-.19.15-.212.21-.17.474.03.184.014.323-.04.356-.049.03-.068.152-.043.277.029.143.003.257-.072.319-.164.137-.144.497.05.869.112.214.177.521.201.94.02.34.053.668.073.726.021.058.002.173-.042.255-.06.112-.039.23.085.467.091.175.215.359.275.408.156.13.438.695.471.944.05.377.19.63.531.957.205.197.317.367.29.439-.025.064.005.183.066.264a.7.7 0 0 1 .114.341c.002.124.128.312.348.519.24.224.39.46.492.763.158.475.466.816.97 1.074.168.087.393.24.498.34q.353.338.785.216a.9.9 0 0 1 .298-.042c.266.065.764-.108 1.093-.38.342-.283.403-.303.942-.318.602-.016 1.036-.184 1.036-.4 0-.158.188-.292.862-.616.333-.16.645-.261.727-.235.156.05.388-.033.764-.273.131-.083.303-.155.382-.158s.292-.077.474-.165c.181-.088.37-.16.42-.16s.238-.071.42-.16c.181-.087.377-.159.435-.159s.186-.055.283-.124c.098-.068.211-.103.252-.078s.196-.022.344-.105.371-.151.497-.151c.125 0 .27-.057.32-.127.129-.175.499-.31.564-.204.032.053.097.042.182-.03.203-.174.381-.214.492-.111.08.073.092.065.056-.036-.035-.103.061-.158.473-.27q.518-.14.597-.06c.107.106.727-.048.683-.17-.018-.049.031-.155.11-.236.138-.144.144-.143.246.02.133.212.224.216.17.008-.024-.088-.011-.163.027-.166.236-.023 1.492-.268 2.215-.433.447-.102.564-.106.617-.023.05.078.066.071.066-.028.001-.099.155-.166.618-.269.339-.075.668-.157.732-.181.084-.033.1-.006.06.1-.048.123-.038.13.066.043.068-.056.286-.114.485-.129.2-.015.465-.088.592-.162.193-.115.25-.12.358-.03.111.093.135.084.174-.065.025-.095.091-.172.147-.172s.122-.054.148-.12c.077-.2.551-.439.848-.426l.28.013-.26.032c-.143.018-.258.057-.257.087.003.1.549.33.597.252.026-.041.24-.132.476-.2.32-.093.466-.103.574-.038s.237.058.504-.028l.359-.115-.28-.013c-.275-.014-.274-.015.12-.135.538-.165.646-.258.453-.393-.122-.086-.232-.086-.62.002-.726.163-1.078.204-1.026.12.026-.041.107-.075.181-.076.18 0 2.415-.538 2.47-.593.025-.024-.096-.048-.268-.053l-.312-.01.279-.063c.153-.035.707-.174 1.23-.31.525-.135 1.03-.246 1.124-.246s.198-.027.23-.06a.22.22 0 0 1 .114-.063c.216-.012.489-.136.448-.202-.032-.051-.085-.054-.143-.006-.119.096-1.008.28-1.067.22-.047-.047-.026-.055.496-.195 1.703-.457 1.885-.488 2.028-.348.076.075.196.283.266.463.117.301.117.337-.004.458-.122.122-.12.132.03.132.231 0 .45.73.483 1.616l.026.7-.437.635c-.241.35-.438.658-.438.684s-.128.196-.283.378c-.177.206-.247.342-.186.363.056.018-.018.127-.176.258q-.275.227-.143.228a.34.34 0 0 0 .23-.117c.054-.066.154-.12.22-.12.104 0 .102.024-.017.155-.135.15-.134.155.025.143.091-.007.184-.059.205-.116.022-.056.076-.102.12-.102.043 0 .056.06.028.132q-.051.134.043.075c.051-.031.093-.02.093.027 0 .14.176.096.388-.095l.199-.18-.183.265c-.1.145-.25.306-.333.358-.255.159-.166.233.095.08.237-.14.248-.14.353.004.06.08.145.125.19.097.044-.027.238-.01.43.038.312.079.349.112.337.307a.9.9 0 0 1-.062.298c-.05.08.43.083.66.003.591-.207.738-.23.805-.123.038.06.07.172.07.249.002.162.09.18.225.044.118-.118.124-.027.013.18-.059.11-.057.155.006.155.057 0 .07.083.039.23l-.05.23.422-.027c.233-.016.538-.063.678-.105.195-.058.278-.049.349.037.051.062.142.113.2.113s.198.098.309.218c.252.271.709.286 1.063.033.189-.134.336-.164.732-.15.511.02.628-.046.876-.49.061-.109.095-.11.281-.01.178.095.223.095.28.004a.28.28 0 0 0 .025-.216c-.04-.104.047-.137.3-.114.183.018.437-.291.75-.913.154-.305.387-.681.519-.835.21-.247.24-.344.25-.82.01-.427.042-.556.153-.615.15-.08.343-.531.275-.641-.022-.036-.004-.088.04-.115.046-.028.084.03.087.134.006.174.01.175.074.024.105-.243.092-.358-.04-.358-.136 0-.16-.125-.038-.2.045-.028.064-.078.043-.112s-.007-.184.03-.334c.038-.15.091-.396.119-.548.067-.38-.086-.214-.183.198-.065.276-.073.234-.063-.32.007-.351.049-.665.093-.697.045-.033.019-.059-.06-.06-.177-.001-.18-.188-.007-.361.112-.112.115-.144.02-.204-.07-.044-.077-.072-.02-.073.065 0 .083-.152.058-.5-.038-.523-.254-1.255-.37-1.255-.039 0-.047.036-.02.08s.015.08-.027.08c-.122 0-.187-.261-.08-.327.131-.082.172-.913.055-1.132-.086-.162-.083-.167.044-.063.126.104.133.095.082-.12-.053-.222-.305-.613-.61-.945-.243-.265-.172.046.091.398.17.228.21.34.15.413-.059.07-.056.134.01.213.154.186.255.63.156.69-.063.04-.062.1.001.22.049.09.059.183.023.205-.037.022-.14-.173-.23-.434-.13-.377-.142-.474-.054-.474.06 0 .11-.028.11-.062 0-.088-.32-.351-.449-.37-.06-.009-.242-.175-.406-.37s-.228-.303-.14-.24c.086.062.237.204.333.315.266.305.295.158.04-.198-.357-.495-.38-.545-.229-.487.206.08.158-.074-.126-.402a4 4 0 0 1-.346-.457c-.048-.087-.214-.184-.369-.216-.31-.064-.809-.331-1.065-.57-.09-.084-.32-.205-.511-.27a2.5 2.5 0 0 1-.566-.279c-.12-.088-.253-.14-.295-.113-.043.026-.396-.11-.786-.303-1.154-.57-1.77-.843-1.906-.843-.07 0-.285-.091-.476-.203s-.445-.222-.564-.243a2.7 2.7 0 0 1-.539-.195c-.177-.086-.386-.156-.463-.156s-.223-.033-.324-.074c-.39-.155-1.072-.347-1.313-.368a11 11 0 0 1-1.484-.295 2 2 0 0 0-.438-.083c-.227.008-1.475-.382-1.742-.545-.368-.223-.378-.19-.07.238.319.445.344.53.119.41-.185-.1-.202-.024-.043.186.061.081.095.192.074.247s.017.145.085.201c.179.148.151.262-.048.199-.145-.046-.162-.031-.112.094.109.268.193.587.155.587-.07 0 .588.916.796 1.11.114.106.282.393.374.638.091.245.228.517.305.605s.137.23.134.316c-.006.182-.154.227-1.242.377-.735.1-.745.105-.358.147l.398.043-.518.057c-.285.031-.895.072-1.356.092-.46.019-.98.05-1.156.07s-.606.061-.957.092c-.35.03-.746.087-.877.126a5 5 0 0 1-.777.108c-.296.02-.568.055-.604.078-.036.022-.383.062-.772.088-.389.027-.736.067-.771.089s-.27.056-.52.075c-.249.019-.48.076-.51.127-.037.059-.184.076-.404.049-.191-.024-.724 0-1.184.055-.461.055-.865.084-.9.066-.033-.018.02-.104.12-.192l.181-.158-.179.087c-.099.048-.18.065-.18.038 0-.08.35-.35.457-.352.073-.002.077.05.018.207-.044.116-.068.223-.054.237.015.015.16-.082.322-.216.162-.133.294-.208.294-.167 0 .042-.054.121-.121.177s-.102.12-.079.144c.05.05.679-.545.679-.643 0-.172.99-.897 1.118-.818.11.069.397-.142.397-.29 0-.074.191-.307.425-.52.713-.65 2.05-1.63 2.143-1.573.05.031.066.018.037-.028-.028-.046.005-.13.073-.187.089-.073.14-.078.18-.016.065.107 1.282-.763 1.286-.92.001-.058-.042-.082-.097-.053-.177.091.443-.438.994-.848.674-.502 1.688-1.588 1.582-1.694-.12-.12.032-.33.56-.768.482-.401.785-.543.51-.237-.144.158-.144.161 0 .106.118-.045.139-.03.098.076-.028.073-.03.133-.004.133s.338-.258.695-.574.736-.647.842-.737l.194-.164-.17.246a2.2 2.2 0 0 1-.292.348c-.068.056-.101.137-.075.18s.16-.028.298-.157c.138-.13.681-.564 1.207-.967l1.343-1.028c.212-.163.553-.444.757-.625.27-.239.47-.343.731-.383.486-.073.697-.203.86-.527.075-.15.324-.4.553-.554.317-.214.455-.373.578-.67.09-.215.162-.433.162-.486 0-.054.067-.157.149-.231.224-.203.297-1.164.117-1.542-.074-.157-.2-.302-.28-.323s-.304-.276-.498-.567c-.193-.29-.471-.598-.618-.683-.146-.085-.307-.212-.357-.282-.051-.07-.269-.21-.484-.311q-.39-.183-.472-.399c-.058-.152-.18-.247-.414-.325-.183-.06-.332-.131-.332-.157 0-.027-.09-.145-.2-.263-.13-.14-.402-.275-.777-.386-.335-.099-.646-.246-.738-.35-.228-.257-.686-.362-1.555-.357-.417.002-.892-.02-1.057-.05q-.298-.053-.299.035c0 .049-.049.088-.11.088-.174 0-.274.175-.311.547-.033.325-.32.73-.518.73-.19 0-.421.387-.41.685.015.427-.212 1.016-.428 1.111a.7.7 0 0 0-.28.297c-.057.12-.14.219-.182.219-.1 0-.631.528-.631.626 0 .04-.178.3-.394.58-.385.495-.47.705-.179.441.267-.24.271-.137.008.194-.142.18-.342.365-.445.412s-.4.299-.662.56c-.31.31-.518.46-.597.43-.247-.096-.966-.15-.844-.064.174.121.096.135-.476.084-.285-.025-.394-.052-.243-.06.437-.021.185-.154-.395-.207-.91-.083-1.288-.091-1.327-.028-.02.034 0 .062.046.062.047 0 .085.039.085.085s-.08.073-.18.058c-.098-.015-.17-.071-.159-.125.01-.054-.045-.098-.124-.098a.36.36 0 0 1-.219-.075c-.12-.12-1.152-.204-1.152-.095 0 .132-.39.111-.529-.028-.105-.105-.094-.143.094-.33.159-.16.227-.187.275-.11.049.079.104.064.24-.062.097-.09.152-.203.123-.25-.03-.048-.02-.086.02-.086.039 0 .104-.069.143-.153.078-.165.822-.804.937-.804.038 0 .048.057.02.127-.05.13.273-.1.67-.478a9 9 0 0 1 .559-.464c.197-.151.538-.445.757-.654.22-.208.659-.576.976-.817.318-.241.598-.472.623-.512s.235-.073.468-.073c.337 0 .464-.04.633-.196.118-.11.21-.282.21-.392 0-.136.081-.246.261-.357.399-.247.594-.495.697-.89.051-.197.18-.45.286-.561.217-.23.392-.992.325-1.409a1.4 1.4 0 0 0-.237-.52 2.3 2.3 0 0 1-.288-.551c-.118-.368-.917-1.119-1.451-1.364-.215-.099-.411-.243-.436-.32s-.148-.194-.274-.259c-.318-.165-.604-.444-.67-.657-.032-.099-.117-.18-.191-.182-.117-.002-.115-.013.015-.089.082-.048.305-.069.497-.047.191.021.77.01 1.286-.027 1.854-.13 5.12-.177 5.243-.075.063.052.153.07.201.041s.13-.022.183.016c.138.1 1.383.135 1.441.041.072-.116 1.406-.124 1.406-.008 0 .12 1.408.034 1.563-.095.067-.056.25-.07.488-.037.21.029.578.056.818.062s.393.024.339.042c-.268.089-.037.178.46.178.308 0 .559.018.559.04 0 .068-.58.872-.7.972-.063.052-.1.14-.08.196.034.103-.16.37-.476.654-.252.226-.224.333.04.15.377-.26.42-.277.366-.133-.039.1.027.083.278-.076.181-.114.366-.208.41-.208.13 0 .095.138-.049.193-.072.028-.111.07-.087.094s.12-.004.213-.062c.143-.088.18-.086.242.012a.18.18 0 0 1-.012.22c-.06.071-.06.102 0 .102a.17.17 0 0 0 .13-.073c.024-.04.188-.097.363-.127s.339-.087.364-.128c.025-.04.076-.055.114-.031.038.023.091.006.118-.037.032-.051.103-.046.2.015.083.051.133.122.111.157-.07.112.156.063.607-.131.241-.104.472-.169.512-.143.041.025 0 .073-.09.106-.157.058-.324.232-.224.232.026 0 .265-.073.53-.163.362-.122.511-.14.591-.074.077.064.152.065.266.003.088-.047.335-.085.549-.085s.674-.075 1.022-.167a7.7 7.7 0 0 1 1.31-.2c1.009-.05 3.029-.117 3.363-.113.218.003.331-.045.445-.19.091-.116.28-.219.464-.253.454-.085.744-.407.738-.82-.002-.181.054-.418.125-.526.162-.248.163-.487.003-.93a1.54 1.54 0 0 1-.081-.688c.053-.41-.032-.656-.339-.977a1.14 1.14 0 0 1-.283-.561c-.044-.276-.105-.353-.448-.564-.27-.166-.398-.298-.398-.41 0-.17-.592-.778-.758-.778-.131 0-.358-.265-.358-.419 0-.07-.166-.228-.369-.352-.498-.305-.719-.54-.776-.827-.027-.132-.094-.252-.15-.266-.544-.143-1.042-.34-1.075-.424-.028-.073-.783-.374-.854-.34-.003 0-.068.05-.145.107m-15.11 2.337c.077.02.185.019.239-.003s-.01-.038-.141-.037c-.132.002-.176.02-.099.04m-11.464.583c-.028.044.006.08.075.08s.124-.036.124-.08-.034-.08-.075-.08-.097.036-.124.08m4.326-.027a.3.3 0 0 0 .2 0c.054-.022.01-.04-.1-.04s-.155.018-.1.04m-8.082.254c.047.075.583.061.662-.017.027-.028-.12-.05-.327-.05s-.358.03-.335.067m-1.667.083c-.132.029-.201.076-.155.105.086.055.648-.045.733-.13.058-.058-.26-.044-.578.025m-2.472.168c-.372.051-.372.096 0 .102.356.006.518-.026.518-.102 0-.044-.027-.074-.06-.067s-.239.037-.458.067m-3.106.551c-.024.04.028.054.115.03.187-.048.21-.102.045-.102-.063 0-.135.032-.16.072M62.6 37.96c0 .043.07.08.155.08.086 0 .177-.037.205-.08.028-.046-.04-.08-.155-.08-.112 0-.204.036-.204.08m1.74-.026c.057.023.125.02.152-.006s-.02-.045-.105-.042c-.093.004-.111.023-.048.048m1.112-.001a.3.3 0 0 0 .199 0c.055-.023.01-.04-.1-.04s-.154.017-.1.04m.564.001c.057.023.126.02.153-.006s-.021-.045-.105-.042c-.093.004-.112.023-.048.048m-6.803.105c-.028.044.006.08.075.08s.124-.036.124-.08-.034-.08-.075-.08-.097.036-.124.08m.917 0c0 .094.06.094.279 0 .141-.06.134-.069-.06-.074-.12-.003-.22.03-.22.074m1.896.138c.143.018.359.017.478-.001.12-.018.003-.033-.26-.032-.263 0-.361.015-.218.033m2.75-.003c.076.02.202.02.279 0s.014-.036-.14-.036c-.153 0-.216.016-.14.036m-6.333.258c-1.112.074-.932.19.213.137.57-.026 1.073-.05 1.117-.05.044-.002.026-.038-.04-.081-.125-.08-.167-.08-1.29-.006m-12.665 1.202c0 .094.06.094.279 0 .14-.06.134-.069-.06-.074-.12-.003-.22.03-.22.074m-3.528.454c-.077.02-.14.073-.14.119 0 .045.057.06.126.034a1 1 0 0 1 .28-.049c.084 0 .152-.035.152-.08 0-.08-.165-.09-.418-.024m3.449 2.9c0 .047.036.062.08.035.043-.027.08-.065.08-.084s-.037-.035-.08-.035-.08.038-.08.084m-3.708 4.142c-.027.044-.012.08.035.08.046 0 .084-.036.084-.08s-.016-.08-.035-.08-.057.036-.084.08m7.695 1.845c-.11.09-.4.35-.646.576s-.67.602-.942.837c-.272.236-.476.447-.452.47.06.06.349-.147.797-.573q.389-.369.448-.28c.042.067.073.068.112.005.03-.049.008-.09-.05-.09-.057 0 .158-.251.479-.558.546-.522.7-.755.254-.387m-2.242 1.325c-.31.344-.415.498-.336.498.04 0 .207-.161.372-.358.323-.386.293-.503-.036-.14m.158.24c-.1.128-.097.13.05.022l.193-.14c.019-.012-.004-.022-.05-.022s-.132.063-.193.14m.569.099c-.11.086-.164.156-.12.156s.17-.07.28-.156c.109-.086.163-.156.119-.156s-.17.07-.28.156m6.7.359c-.15.153-.237.279-.196.279.042 0 .176-.126.299-.28.284-.355.242-.355-.104 0m-7.43.095c.057.023.126.02.152-.006.027-.027-.02-.045-.105-.042-.092.004-.111.023-.048.048m1.032.082c.099.019.26.019.359 0 .098-.02.018-.035-.18-.035s-.278.016-.18.035m12.421 4.033a3.5 3.5 0 0 1-.39.358c-.128.099-.213.199-.19.222.024.024.235-.137.47-.357.236-.22.393-.4.35-.4-.044-.001-.152.078-.24.177m-11.814.476c-.072.116.678.1.798-.018.037-.037-.119-.061-.347-.054s-.43.039-.451.072m-.282.114c.057.023.126.02.153-.006s-.02-.046-.105-.042c-.093.004-.112.023-.048.048m-.025.982c-.027.044-.011.08.035.08.047 0 .085-.036.085-.08s-.016-.08-.036-.08-.057.036-.084.08m6.466 2.863q-.135.151-.052.204c.047.03.085.01.085-.043 0-.052.063-.143.14-.201.076-.059.1-.107.052-.109-.048-.001-.15.066-.225.15m-.286.816c-.11.092-.269.215-.354.275s-.13.132-.102.161.134-.023.234-.115.272-.24.382-.327.163-.16.12-.16c-.045 0-.17.075-.28.166m-1.164 1.065c-.127.11-.185.2-.128.2s.2-.09.318-.2c.28-.26.112-.26-.19 0m-1.906.997c-.027.044-.011.08.035.08.047 0 .085-.036.085-.08s-.016-.08-.036-.08-.057.036-.084.08m-10.845.924c-.312.276-.313.28-.055.138.281-.154.567-.425.446-.423-.04 0-.216.129-.391.285m11.704 1.603c.077.02.185.02.239-.003.054-.022-.01-.038-.141-.036-.132.001-.176.019-.098.04m-2.015.263c-.194.062-.193.064.04.062a2.4 2.4 0 0 0 .478-.062l.24-.06-.28-.002c-.153-.001-.369.027-.478.062m22.113.353c.14.239.265.406.277.373.032-.087-.381-.806-.464-.806-.038 0 .046.195.187.433m-23.828-.114-.319.057.32.004c.175.002.408-.026.518-.06l.199-.065-.2.004c-.11.002-.342.029-.518.06m24.522.479c0 .044.038.08.084.08s.062-.036.035-.08-.065-.08-.084-.08-.035.036-.035.08m.239 1.315c0 .066.035.12.077.12.043 0 .057-.054.032-.12-.026-.065-.06-.12-.078-.12-.017 0-.031.055-.031.12m-11.164.084-.28.11.36-.017c.197-.01.352-.052.344-.095-.021-.119-.12-.119-.424.002m-.733.25c.058.023.126.02.153-.006s-.02-.046-.105-.042c-.093.004-.112.023-.048.048m.22.153c-.663.16-.65.2.05.154.566-.037 1.02-.144 1.02-.24 0-.077-.593-.03-1.07.086m11.757.022c0 .044.036.102.08.13.043.027.08.013.08-.031s-.037-.102-.08-.129-.08-.013-.08.03m.558.563c0 .09.036.165.08.165s.08-.052.08-.115c0-.064-.036-.137-.08-.165s-.08.025-.08.115m-14.075.284-.24.113.24-.047c.132-.025.273-.078.315-.116.114-.104-.039-.08-.315.05m.558.205c-.35.083-.853.224-1.116.313-.472.16-.473.161-.12.116.197-.026.52-.096.718-.155.598-.181.904-.228.842-.129-.03.049-.02.089.022.089s.096-.054.122-.12.098-.12.163-.12c.064 0 .14-.035.167-.08.065-.104-.039-.093-.798.086m-.273.413c-.004.1-.073.14-.24.14-.222 0-.366.09-.28.176.041.042.83-.146.898-.215.023-.022-.033-.041-.125-.041-.091 0-.184-.045-.206-.1-.024-.06-.043-.043-.047.04m-2.638.22c-.065.042-.083.077-.04.077a.5.5 0 0 0 .2-.078c.066-.042.084-.077.04-.077a.5.5 0 0 0-.2.077m1.755.12c-.083.1-.072.12.07.12.097 0 .17-.051.17-.12 0-.066-.032-.12-.07-.12-.04 0-.116.054-.17.12m-1.475.2c-.063.1.043.1.199 0 .103-.067.1-.078-.015-.08-.074 0-.157.036-.184.08m1.714.08a.08.08 0 0 0 .16 0 .08.08 0 0 0-.08-.08.08.08 0 0 0-.08.08m-4.645.054c-.077.02-.14.069-.14.109 0 .084.483.007.595-.095.078-.071-.201-.08-.455-.014m3.09.025c-.027.044-.013.08.03.08.044 0 .102-.036.13-.08.027-.044.013-.08-.03-.08-.045 0-.103.036-.13.08m-3.262.326q-1.684.372-.845.263c.714-.092 1.953-.357 2.028-.432.108-.108 0-.093-1.183.169m-2.679.312c-.19.06-.188.064.055.072.14.004.277-.028.304-.072.057-.092-.073-.092-.359 0m.837.08-.16.068.16-.002c.088-.001.25-.031.36-.066l.199-.064-.2-.003a1 1 0 0 0-.359.067m-.533.134c.058.023.126.02.153-.006s-.02-.046-.105-.042q-.141.008-.048.048m21.546.025a.08.08 0 0 0 .16 0 .08.08 0 0 0-.08-.08.08.08 0 0 0-.08.08m-23.604.625c0 .051-.081.097-.18.102-.147.008-.153.016-.031.047.159.041.355-.098.265-.188-.03-.03-.054-.012-.054.039m-1.356.332c-.072.046-.082.078-.025.079a.19.19 0 0 0 .145-.079c.06-.099.033-.099-.12 0m.304-.025c.058.023.126.02.153-.006s-.02-.046-.105-.042c-.093.003-.112.022-.048.048m-.623.105c0 .044.038.08.085.08.046 0 .062-.036.035-.08s-.065-.08-.085-.08-.035.036-.035.08m-.279.08c.027.043.065.08.084.08s.036-.037.036-.08-.038-.08-.085-.08c-.046 0-.062.036-.035.08m-.359.08c0 .043.054.08.12.08s.12-.037.12-.08c0-.045-.054-.08-.12-.08s-.12.035-.12.08m-.334.054c.058.023.127.02.153-.007.026-.026-.02-.045-.105-.041-.093.003-.111.022-.048.048m-1.34.504c-.107.068-.107.077 0 .077a.5.5 0 0 0 .239-.077c.106-.07.106-.078 0-.078a.5.5 0 0 0-.24.078"/></svg>